# xmcd
#
# Track frame offsets:
#	150
#	17117
#	37046
#	50988
#	72598
#	89700
#	109032
#	125509
#	142745
#	159087
#
# Disc length: 2362 seconds
#
# Revision: 1
# Processed by: cddbd v1.5.1PL0 Copyright (c) Steve Scherf et al.
# Submitted via: audiograbber 1.82.02
#
DISCID=8c09380a
DTITLE=Alabama - Roll On
DYEAR=1984
DGENRE=Country
TTITLE0=Alabama - Roll On (Eighteen Wheeler)
TTITLE1=Alabama - Carolina Mountain Dewe
TTITLE2=Alabama - The End Of The Lyin'
TTITLE3=Alabama - I'm Not That Way Anymore
TTITLE4=Alabama - If You're Gonna Play in Texas (You Gotta Have a Fiddle in the
TTITLE4=Band) 
TTITLE5=Alabama - (There's A) Fire In The Night
TTITLE6=Alabama - When We Make Love
TTITLE7=Alabama - Country Side Of Life
TTITLE8=Alabama - The Boy
TTITLE9=Alabama - Food On The Table
EXTD=
EXTT0=
EXTT1=
EXTT2=
EXTT3=
EXTT4=
EXTT5=
EXTT6=
EXTT7=
EXTT8=
EXTT9=
PLAYORDER=
